<svg xmlns="http://www.w3.org/2000/svg" xmlns:xlink="http://www.w3.org/1999/xlink" zoomAndPan="magnify" preserveAspectRatio="xMidYMid meet" version="1.0" viewBox="82.65 155.05 215.58 65.25"><defs><g></g><clipPath id="id1"><path d="M 82.648438 155.046875 L 157.648438 155.046875 L 157.648438 220.296875 L 82.648438 220.296875 Z M 82.648438 155.046875 " clip-rule="nonzero"></path></clipPath><clipPath id="id2"><path d="M 119 160.636719 L 136.65625 160.636719 L 136.65625 198 L 119 198 Z M 119 160.636719 " clip-rule="nonzero"></path></clipPath><clipPath id="id3"><path d="M 103.65625 160.636719 L 121 160.636719 L 121 198 L 103.65625 198 Z M 103.65625 160.636719 " clip-rule="nonzero"></path></clipPath><clipPath id="id4"><path d="M 119 191 L 136.65625 191 L 136.65625 214.636719 L 119 214.636719 Z M 119 191 " clip-rule="nonzero"></path></clipPath><clipPath id="id5"><path d="M 103.65625 191 L 121 191 L 121 214.636719 L 103.65625 214.636719 Z M 103.65625 191 " clip-rule="nonzero"></path></clipPath><clipPath id="id6"><path d="M 120 180 L 136.65625 180 L 136.65625 198 L 120 198 Z M 120 180 " clip-rule="nonzero"></path></clipPath><clipPath id="id7"><path d="M 103.65625 180 L 121 180 L 121 198 L 103.65625 198 Z M 103.65625 180 " clip-rule="nonzero"></path></clipPath></defs><g clip-path="url(#id1)"><path fill="#ffffff" d="M 101.414062 220.296875 L 82.675781 187.671875 L 101.414062 155.046875 L 138.882812 155.046875 L 157.617188 187.671875 L 138.882812 220.296875 Z M 101.414062 220.296875 " fill-opacity="1" fill-rule="nonzero"></path></g><g clip-path="url(#id2)"><path fill="#343434" d="M 120.148438 160.644531 L 119.789062 161.875 L 119.789062 197.570312 L 120.148438 197.929688 L 136.644531 188.136719 Z M 120.148438 160.644531 " fill-opacity="1" fill-rule="nonzero"></path></g><g clip-path="url(#id3)"><path fill="#8c8c8c" d="M 120.148438 160.644531 L 103.65625 188.136719 L 120.148438 197.929688 Z M 120.148438 160.644531 " fill-opacity="1" fill-rule="nonzero"></path></g><g clip-path="url(#id4)"><path fill="#3c3c3b" d="M 120.148438 201.066406 L 119.945312 201.316406 L 119.945312 214.03125 L 120.148438 214.628906 L 136.65625 191.277344 Z M 120.148438 201.066406 " fill-opacity="1" fill-rule="nonzero"></path></g><g clip-path="url(#id5)"><path fill="#8c8c8c" d="M 120.148438 214.628906 L 120.148438 201.066406 L 103.65625 191.277344 Z M 120.148438 214.628906 " fill-opacity="1" fill-rule="nonzero"></path></g><g clip-path="url(#id6)"><path fill="#141414" d="M 120.148438 197.929688 L 136.644531 188.136719 L 120.148438 180.605469 Z M 120.148438 197.929688 " fill-opacity="1" fill-rule="nonzero"></path></g><g clip-path="url(#id7)"><path fill="#393939" d="M 103.65625 188.136719 L 120.148438 197.929688 L 120.148438 180.605469 Z M 103.65625 188.136719 " fill-opacity="1" fill-rule="nonzero"></path></g><g fill="#ffffff" fill-opacity="1"><g transform="translate(166.43179, 192.374987)"><g><path d="M 9.9375 -3.046875 C 9.9375 -2.023438 9.539062 -1.234375 8.75 -0.671875 C 7.957031 -0.117188 6.835938 0.15625 5.390625 0.15625 C 2.710938 0.15625 1.160156 -0.773438 0.734375 -2.640625 L 2.171875 -2.9375 C 2.335938 -2.269531 2.691406 -1.78125 3.234375 -1.46875 C 3.773438 -1.164062 4.515625 -1.015625 5.453125 -1.015625 C 6.410156 -1.015625 7.148438 -1.175781 7.671875 -1.5 C 8.203125 -1.832031 8.46875 -2.320312 8.46875 -2.96875 C 8.46875 -3.320312 8.382812 -3.609375 8.21875 -3.828125 C 8.050781 -4.054688 7.816406 -4.242188 7.515625 -4.390625 C 7.222656 -4.535156 6.867188 -4.65625 6.453125 -4.75 C 6.046875 -4.851562 5.59375 -4.960938 5.09375 -5.078125 C 4.226562 -5.273438 3.566406 -5.46875 3.109375 -5.65625 C 2.660156 -5.851562 2.304688 -6.066406 2.046875 -6.296875 C 1.785156 -6.535156 1.585938 -6.8125 1.453125 -7.125 C 1.316406 -7.445312 1.25 -7.816406 1.25 -8.234375 C 1.25 -9.171875 1.609375 -9.894531 2.328125 -10.40625 C 3.046875 -10.914062 4.078125 -11.171875 5.421875 -11.171875 C 6.671875 -11.171875 7.625 -10.976562 8.28125 -10.59375 C 8.945312 -10.21875 9.414062 -9.566406 9.6875 -8.640625 L 8.21875 -8.390625 C 8.050781 -8.972656 7.738281 -9.394531 7.28125 -9.65625 C 6.832031 -9.914062 6.207031 -10.046875 5.40625 -10.046875 C 4.53125 -10.046875 3.859375 -9.898438 3.390625 -9.609375 C 2.929688 -9.316406 2.703125 -8.882812 2.703125 -8.3125 C 2.703125 -7.96875 2.789062 -7.6875 2.96875 -7.46875 C 3.144531 -7.25 3.398438 -7.0625 3.734375 -6.90625 C 4.078125 -6.75 4.753906 -6.5625 5.765625 -6.34375 C 6.109375 -6.257812 6.445312 -6.175781 6.78125 -6.09375 C 7.113281 -6.019531 7.429688 -5.925781 7.734375 -5.8125 C 8.046875 -5.695312 8.335938 -5.5625 8.609375 -5.40625 C 8.878906 -5.257812 9.113281 -5.078125 9.3125 -4.859375 C 9.507812 -4.640625 9.660156 -4.378906 9.765625 -4.078125 C 9.878906 -3.785156 9.9375 -3.441406 9.9375 -3.046875 Z M 9.9375 -3.046875 "></path></g></g></g><g fill="#ffffff" fill-opacity="1"><g transform="translate(177.101059, 192.374987)"><g><path d="M 10.671875 0 L 10.671875 -7.34375 C 10.671875 -8.15625 10.695312 -8.9375 10.75 -9.6875 C 10.488281 -8.757812 10.257812 -8.03125 10.0625 -7.5 L 7.21875 0 L 6.171875 0 L 3.28125 -7.5 L 2.84375 -8.828125 L 2.59375 -9.6875 L 2.609375 -8.828125 L 2.640625 -7.34375 L 2.640625 0 L 1.3125 0 L 1.3125 -11.015625 L 3.28125 -11.015625 L 6.203125 -3.375 C 6.304688 -3.070312 6.40625 -2.742188 6.5 -2.390625 C 6.601562 -2.035156 6.671875 -1.78125 6.703125 -1.625 C 6.742188 -1.832031 6.828125 -2.148438 6.953125 -2.578125 C 7.085938 -3.003906 7.179688 -3.269531 7.234375 -3.375 L 10.109375 -11.015625 L 12.015625 -11.015625 L 12.015625 0 Z M 10.671875 0 "></path></g></g></g><g fill="#ffffff" fill-opacity="1"><g transform="translate(190.42593, 192.374987)"><g><path d="M 9.125 0 L 7.859375 -3.21875 L 2.84375 -3.21875 L 1.578125 0 L 0.03125 0 L 4.53125 -11.015625 L 6.21875 -11.015625 L 10.640625 0 Z M 5.359375 -9.890625 L 5.28125 -9.671875 C 5.15625 -9.234375 4.960938 -8.675781 4.703125 -8 L 3.296875 -4.390625 L 7.421875 -4.390625 L 6 -8.015625 C 5.851562 -8.378906 5.707031 -8.785156 5.5625 -9.234375 Z M 5.359375 -9.890625 "></path></g></g></g><g fill="#ffffff" fill-opacity="1"><g transform="translate(201.095198, 192.374987)"><g><path d="M 9.09375 0 L 6.234375 -4.578125 L 2.8125 -4.578125 L 2.8125 0 L 1.3125 0 L 1.3125 -11.015625 L 6.5 -11.015625 C 7.738281 -11.015625 8.691406 -10.734375 9.359375 -10.171875 C 10.035156 -9.617188 10.375 -8.847656 10.375 -7.859375 C 10.375 -7.046875 10.132812 -6.359375 9.65625 -5.796875 C 9.1875 -5.242188 8.53125 -4.894531 7.6875 -4.75 L 10.8125 0 Z M 8.875 -7.84375 C 8.875 -8.488281 8.65625 -8.976562 8.21875 -9.3125 C 7.789062 -9.644531 7.164062 -9.8125 6.34375 -9.8125 L 2.8125 -9.8125 L 2.8125 -5.75 L 6.40625 -5.75 C 7.195312 -5.75 7.804688 -5.929688 8.234375 -6.296875 C 8.660156 -6.671875 8.875 -7.1875 8.875 -7.84375 Z M 8.875 -7.84375 "></path></g></g></g><g fill="#ffffff" fill-opacity="1"><g transform="translate(212.64707, 192.374987)"><g><path d="M 5.625 -9.796875 L 5.625 0 L 4.140625 0 L 4.140625 -9.796875 L 0.359375 -9.796875 L 0.359375 -11.015625 L 9.40625 -11.015625 L 9.40625 -9.796875 Z M 5.625 -9.796875 "></path></g></g></g><g fill="#ffffff" fill-opacity="1"><g transform="translate(222.418126, 192.374987)"><g></g></g></g><g fill="#ffffff" fill-opacity="1"><g transform="translate(226.853661, 192.374987)"><g><path d="M 10.046875 -3.171875 C 10.046875 -2.097656 9.644531 -1.273438 8.84375 -0.703125 C 8.050781 -0.128906 6.878906 0.15625 5.328125 0.15625 C 3.921875 0.15625 2.816406 -0.09375 2.015625 -0.59375 C 1.210938 -1.09375 0.695312 -1.851562 0.46875 -2.875 L 2.6875 -3.234375 C 2.84375 -2.648438 3.140625 -2.226562 3.578125 -1.96875 C 4.015625 -1.707031 4.617188 -1.578125 5.390625 -1.578125 C 7.003906 -1.578125 7.8125 -2.066406 7.8125 -3.046875 C 7.8125 -3.359375 7.71875 -3.613281 7.53125 -3.8125 C 7.34375 -4.019531 7.082031 -4.191406 6.75 -4.328125 C 6.414062 -4.460938 5.769531 -4.625 4.8125 -4.8125 C 3.988281 -5.007812 3.414062 -5.164062 3.09375 -5.28125 C 2.769531 -5.394531 2.476562 -5.53125 2.21875 -5.6875 C 1.957031 -5.851562 1.734375 -6.046875 1.546875 -6.265625 C 1.367188 -6.492188 1.226562 -6.757812 1.125 -7.0625 C 1.03125 -7.363281 0.984375 -7.707031 0.984375 -8.09375 C 0.984375 -9.09375 1.351562 -9.851562 2.09375 -10.375 C 2.84375 -10.90625 3.929688 -11.171875 5.359375 -11.171875 C 6.722656 -11.171875 7.75 -10.957031 8.4375 -10.53125 C 9.125 -10.101562 9.566406 -9.398438 9.765625 -8.421875 L 7.53125 -8.109375 C 7.414062 -8.585938 7.179688 -8.945312 6.828125 -9.1875 C 6.472656 -9.425781 5.96875 -9.546875 5.3125 -9.546875 C 3.914062 -9.546875 3.21875 -9.109375 3.21875 -8.234375 C 3.21875 -7.941406 3.289062 -7.703125 3.4375 -7.515625 C 3.59375 -7.335938 3.816406 -7.1875 4.109375 -7.0625 C 4.398438 -6.9375 4.988281 -6.773438 5.875 -6.578125 C 6.9375 -6.359375 7.691406 -6.148438 8.140625 -5.953125 C 8.597656 -5.765625 8.957031 -5.546875 9.21875 -5.296875 C 9.488281 -5.046875 9.691406 -4.742188 9.828125 -4.390625 C 9.972656 -4.035156 10.046875 -3.628906 10.046875 -3.171875 Z M 10.046875 -3.171875 "></path></g></g></g><g fill="#ffffff" fill-opacity="1"><g transform="translate(237.52293, 192.374987)"><g><path d="M 8.859375 0 L 7.875 -2.8125 L 3.6875 -2.8125 L 2.703125 0 L 0.40625 0 L 4.421875 -11.015625 L 7.140625 -11.015625 L 11.140625 0 Z M 5.78125 -9.3125 L 5.734375 -9.140625 C 5.679688 -8.953125 5.617188 -8.738281 5.546875 -8.5 C 5.472656 -8.257812 5.023438 -6.941406 4.203125 -4.546875 L 7.359375 -4.546875 L 6.28125 -7.71875 L 5.9375 -8.78125 Z M 5.78125 -9.3125 "></path></g></g></g><g fill="#ffffff" fill-opacity="1"><g transform="translate(249.074802, 192.374987)"><g><path d="M 6.515625 0 L 4.1875 0 L 0.109375 -11.015625 L 2.515625 -11.015625 L 4.78125 -3.9375 C 4.925781 -3.476562 5.117188 -2.785156 5.359375 -1.859375 L 5.53125 -2.53125 L 5.921875 -3.9375 L 8.1875 -11.015625 L 10.5625 -11.015625 Z M 6.515625 0 "></path></g></g></g><g fill="#ffffff" fill-opacity="1"><g transform="translate(259.744071, 192.374987)"><g><path d="M 1.078125 0 L 1.078125 -11.015625 L 3.375 -11.015625 L 3.375 0 Z M 1.078125 0 "></path></g></g></g><g fill="#ffffff" fill-opacity="1"><g transform="translate(264.188303, 192.374987)"><g><path d="M 7.78125 0 L 2.984375 -8.484375 C 3.078125 -7.660156 3.125 -7 3.125 -6.5 L 3.125 0 L 1.078125 0 L 1.078125 -11.015625 L 3.703125 -11.015625 L 8.578125 -2.46875 C 8.484375 -3.25 8.4375 -3.960938 8.4375 -4.609375 L 8.4375 -11.015625 L 10.484375 -11.015625 L 10.484375 0 Z M 7.78125 0 "></path></g></g></g><g fill="#ffffff" fill-opacity="1"><g transform="translate(275.740175, 192.374987)"><g><path d="M 6.296875 -1.65625 C 6.898438 -1.65625 7.484375 -1.738281 8.046875 -1.90625 C 8.609375 -2.082031 9.039062 -2.304688 9.34375 -2.578125 L 9.34375 -4.109375 L 6.65625 -4.109375 L 6.65625 -5.8125 L 11.453125 -5.8125 L 11.453125 -1.765625 C 10.867188 -1.160156 10.109375 -0.6875 9.171875 -0.34375 C 8.242188 -0.0078125 7.265625 0.15625 6.234375 0.15625 C 4.441406 0.15625 3.0625 -0.335938 2.09375 -1.328125 C 1.132812 -2.328125 0.65625 -3.738281 0.65625 -5.5625 C 0.65625 -7.375 1.140625 -8.757812 2.109375 -9.71875 C 3.078125 -10.6875 4.472656 -11.171875 6.296875 -11.171875 C 8.878906 -11.171875 10.519531 -10.21875 11.21875 -8.3125 L 9.09375 -7.671875 C 8.863281 -8.222656 8.503906 -8.640625 8.015625 -8.921875 C 7.523438 -9.210938 6.953125 -9.359375 6.296875 -9.359375 C 5.210938 -9.359375 4.390625 -9.03125 3.828125 -8.375 C 3.265625 -7.71875 2.984375 -6.78125 2.984375 -5.5625 C 2.984375 -4.3125 3.269531 -3.347656 3.84375 -2.671875 C 4.425781 -1.992188 5.242188 -1.65625 6.296875 -1.65625 Z M 6.296875 -1.65625 "></path></g></g></g><g fill="#ffffff" fill-opacity="1"><g transform="translate(288.182454, 192.374987)"><g><path d="M 10.046875 -3.171875 C 10.046875 -2.097656 9.644531 -1.273438 8.84375 -0.703125 C 8.050781 -0.128906 6.878906 0.15625 5.328125 0.15625 C 3.921875 0.15625 2.816406 -0.09375 2.015625 -0.59375 C 1.210938 -1.09375 0.695312 -1.851562 0.46875 -2.875 L 2.6875 -3.234375 C 2.84375 -2.648438 3.140625 -2.226562 3.578125 -1.96875 C 4.015625 -1.707031 4.617188 -1.578125 5.390625 -1.578125 C 7.003906 -1.578125 7.8125 -2.066406 7.8125 -3.046875 C 7.8125 -3.359375 7.71875 -3.613281 7.53125 -3.8125 C 7.34375 -4.019531 7.082031 -4.191406 6.75 -4.328125 C 6.414062 -4.460938 5.769531 -4.625 4.8125 -4.8125 C 3.988281 -5.007812 3.414062 -5.164062 3.09375 -5.28125 C 2.769531 -5.394531 2.476562 -5.53125 2.21875 -5.6875 C 1.957031 -5.851562 1.734375 -6.046875 1.546875 -6.265625 C 1.367188 -6.492188 1.226562 -6.757812 1.125 -7.0625 C 1.03125 -7.363281 0.984375 -7.707031 0.984375 -8.09375 C 0.984375 -9.09375 1.351562 -9.851562 2.09375 -10.375 C 2.84375 -10.90625 3.929688 -11.171875 5.359375 -11.171875 C 6.722656 -11.171875 7.75 -10.957031 8.4375 -10.53125 C 9.125 -10.101562 9.566406 -9.398438 9.765625 -8.421875 L 7.53125 -8.109375 C 7.414062 -8.585938 7.179688 -8.945312 6.828125 -9.1875 C 6.472656 -9.425781 5.96875 -9.546875 5.3125 -9.546875 C 3.914062 -9.546875 3.21875 -9.109375 3.21875 -8.234375 C 3.21875 -7.941406 3.289062 -7.703125 3.4375 -7.515625 C 3.59375 -7.335938 3.816406 -7.1875 4.109375 -7.0625 C 4.398438 -6.9375 4.988281 -6.773438 5.875 -6.578125 C 6.9375 -6.359375 7.691406 -6.148438 8.140625 -5.953125 C 8.597656 -5.765625 8.957031 -5.546875 9.21875 -5.296875 C 9.488281 -5.046875 9.691406 -4.742188 9.828125 -4.390625 C 9.972656 -4.035156 10.046875 -3.628906 10.046875 -3.171875 Z M 10.046875 -3.171875 "></path></g></g></g></svg>